<?xml version="1.0" standalone="no"?>
<!DOCTYPE svg PUBLIC "-//W3C//DTD SVG 20010904//EN"
 "http://www.w3.org/TR/2001/REC-SVG-20010904/DTD/svg10.dtd">
<svg version="1.0" xmlns="http://www.w3.org/2000/svg"
 width="700.000000pt" height="700.000000pt" viewBox="0 0 700.000000 700.000000"
 preserveAspectRatio="xMidYMid meet">
<metadata>
Created by potrace 1.16, written by Peter Selinger 2001-2019
</metadata>
<g transform="translate(0.000000,700.000000) scale(0.100000,-0.100000)"
fill="#000000" stroke="none">
<path d="M2465 5530 c-6 -10 -105 -60 -119 -60 -4 0 -28 -9 -54 -21 -31 -13
-77 -51 -135 -112 l-88 -91 -9 -74 c-6 -41 -7 -79 -4 -84 3 -5 12 -33 18 -62
16 -65 74 -154 137 -209 27 -23 49 -45 49 -48 0 -3 -16 -28 -36 -55 l-36 -49
48 53 49 53 60 -22 c68 -25 186 -30 225 -9 22 12 28 8 84 -51 34 -35 117 -129
186 -209 l125 -145 38 42 38 42 -108 133 c-126 155 -206 257 -218 277 -6 11
-4 13 9 8 14 -6 17 -3 12 9 -3 9 4 29 18 47 91 120 106 302 35 445 -32 66
-122 152 -184 177 -44 18 -132 28 -140 15z m60 -169 c124 -57 174 -205 111
-328 -32 -65 -42 -69 -16 -8 16 37 17 45 5 45 -8 0 -15 -6 -15 -14 0 -8 -4
-18 -10 -21 -22 -14 -130 -33 -215 -38 -81 -5 -89 -10 -69 -50 20 -38 17 -36
-29 25 -73 96 -88 154 -63 239 40 137 179 206 301 150z"/>
<path d="M2383 5198 c-11 -13 -23 -28 -27 -35 -16 -29 52 -125 82 -115 7 2 12
0 11 -5 -4 -24 4 -21 36 14 43 47 50 67 35 103 -24 59 -99 79 -137 38z"/>
<path d="M4768 5198 c8 -140 -35 -257 -122 -333 -63 -56 -112 -79 -207 -98
-118 -24 -185 -8 -299 75 l-55 40 53 -51 c29 -28 61 -51 72 -51 10 0 22 -4 25
-10 10 -17 88 -32 156 -31 80 1 170 31 222 72 23 18 44 28 54 25 11 -4 14 -2
9 9 -4 10 1 15 14 15 12 0 17 5 14 14 -3 7 6 30 20 50 40 60 60 132 59 221 -1
44 -5 94 -11 110 -7 22 -8 7 -4 -57z"/>
<path d="M5432 4483 c25 -56 32 -193 11 -200 -7 -3 -13 -12 -13 -20 0 -17 -13
-33 -64 -81 -48 -45 -58 -59 -72 -98 -21 -61 -4 -70 52 -28 87 67 145 211 129
322 -6 44 -48 152 -59 152 -3 0 5 -21 16 -47z"/>
<path d="M3755 4470 c-3 -5 -12 -7 -20 -4 -9 4 -12 0 -9 -13 3 -10 -5 -29 -18
-43 -13 -14 -32 -36 -42 -48 l-19 -22 44 -20 c24 -10 58 -31 74 -45 26 -22 21
-21 -40 10 -38 20 -106 43 -150 52 -202 41 -415 -54 -536 -240 -48 -74 -68
-134 -79 -239 l-9 -83 4 101 4 101 -30 0 c-28 0 -43 -16 -16 -18 6 -1 -4 -5
-23 -9 -41 -10 -50 -6 -50 23 -1 22 -1 22 -14 -2 -10 -18 -15 -21 -20 -10 -3
8 -4 1 -1 -15 4 -19 0 -35 -11 -47 -14 -16 -16 -33 -11 -115 3 -53 10 -100 15
-103 5 -3 12 -24 15 -45 4 -22 26 -78 49 -125 51 -104 150 -208 275 -291 58
-39 83 -61 83 -75 0 -19 -20 -53 -78 -137 -26 -36 -27 -38 66 71 64 75 65 47
2 -40 -29 -39 -48 -69 -43 -66 6 4 32 36 59 71 27 36 52 66 56 66 16 0 98 -56
98 -67 0 -6 8 -12 18 -12 64 0 112 -16 155 -50 174 -139 183 -148 371 -384 27
-34 76 -96 109 -137 34 -41 62 -77 64 -79 2 -2 6 -2 9 2 7 7 -56 93 -151 207
-39 47 -101 122 -138 167 l-68 82 46 22 c57 27 47 35 201 -164 64 -82 129
-162 144 -177 16 -16 31 -38 35 -49 8 -25 15 -26 40 -7 22 16 24 13 -115 186
-42 52 -125 158 -185 235 -60 77 -130 165 -155 195 -41 50 -70 93 -70 104 0 2
15 8 32 12 66 14 153 70 234 149 68 66 89 96 128 175 61 125 79 213 73 355 -9
195 -70 338 -202 471 -44 44 -102 93 -129 107 -53 30 -62 32 -71 17z m-180
-404 c28 -13 59 -34 70 -46 11 -13 14 -20 6 -15 -8 4 -24 9 -35 11 -12 1 -29
5 -39 9 -10 5 -17 3 -15 -3 2 -5 -1 -10 -5 -10 -5 -1 -15 -9 -23 -19 -7 -10
-14 -15 -14 -11 0 7 -14 -3 -54 -37 -6 -5 -18 -11 -26 -13 -8 -2 -19 -8 -25
-14 -7 -8 -4 -8 9 -1 21 11 72 1 90 -17 8 -8 3 -8 -17 -1 -35 14 -40 14 -32 1
3 -5 0 -8 -7 -5 -15 6 -58 -56 -58 -82 0 -15 -2 -16 -10 -3 -14 21 -12 63 3
80 6 8 3 7 -9 -3 -11 -9 -35 -17 -52 -17 -17 0 -34 -5 -37 -10 -4 -6 -9 -8
-13 -6 -12 7 -41 -19 -51 -45 -8 -20 -10 -15 -10 31 -1 177 194 301 354 226z"/>
<path d="M5120 4443 c-30 -5 -59 -40 -60 -70 0 -13 13 -37 30 -55 25 -28 31
-31 41 -18 8 11 12 12 16 3 8 -20 40 -15 63 9 26 28 26 82 0 108 -11 11 -24
20 -29 20 -5 0 -15 2 -23 4 -7 2 -24 1 -38 -1z"/>
<path d="M5317 3953 c-3 -4 -3 -23 -2 -42 4 -44 -39 -91 -82 -91 l-28 1 30 16
c17 8 38 22 48 31 19 16 23 42 7 42 -5 0 -10 -6 -10 -14 0 -16 -58 -27 -64
-12 -2 8 -7 7 -16 -1 -7 -6 -19 -9 -26 -6 -8 3 -17 -2 -20 -11 -8 -20 -23 -20
-46 1 -10 9 -18 12 -18 6 0 -26 72 -72 110 -68 15 1 28 -4 32 -14 6 -14 7 -14
7 2 1 13 7 16 25 11 40 -10 93 69 84 127 -3 23 -22 37 -31 22z"/>
<path d="M5454 3339 c15 -25 33 -70 42 -99 l15 -52 -28 -30 c-21 -22 -35 -28
-58 -26 -27 3 -32 -2 -56 -52 -15 -31 -35 -62 -44 -70 -17 -14 -17 -13 -6 7
11 22 10 22 -16 12 -35 -13 -74 -49 -67 -61 3 -4 11 -5 17 -2 9 5 9 4 1 -5
-15 -16 -75 -25 -117 -17 -19 4 -51 18 -71 31 -20 14 -39 25 -43 25 -12 0 23
-34 59 -56 27 -18 35 -28 31 -43 -5 -20 -63 -63 -80 -60 -30 5 -73 -2 -67 -12
17 -27 -37 14 -82 63 -32 35 -41 42 -29 21 34 -54 114 -133 135 -133 23 0 23
-1 -152 -237 -54 -73 -102 -133 -108 -133 -5 0 -13 6 -17 13 -4 7 -30 24 -58
36 -27 12 -58 27 -68 32 -10 6 -54 15 -98 22 -63 9 -84 9 -97 -1 -9 -7 -33
-19 -52 -28 -106 -46 -163 -88 -231 -169 -14 -16 -34 -35 -45 -41 -28 -16 -48
-97 -48 -189 0 -119 30 -191 114 -275 75 -75 129 -105 232 -126 226 -47 450
117 489 356 17 110 -6 205 -78 321 l-17 27 127 169 c158 211 155 209 203 193
22 -7 68 -11 113 -8 169 10 298 131 331 311 18 97 -18 234 -80 307 -18 21 -17
17 4 -21z m-994 -1136 c57 -34 66 -100 19 -144 -44 -41 -98 -40 -132 1 -35 41
-41 66 -27 101 23 54 87 73 140 42z"/>
<path d="M4475 3299 c-51 -12 -82 -43 -97 -93 -13 -48 -13 -61 1 -112 13 -49
54 -76 117 -76 86 0 128 54 126 161 -1 51 -6 69 -23 87 -13 13 -30 24 -40 24
-10 0 -21 5 -24 10 -7 11 -6 11 -60 -1z"/>
<path d="M1833 3249 c-18 -5 -33 -12 -33 -15 0 -3 8 -3 19 1 16 5 19 -2 25
-65 4 -38 10 -70 14 -70 20 0 53 34 60 63 l9 32 34 -60 34 -60 3 37 c4 47 -19
91 -60 116 -45 27 -68 32 -105 21z"/>
<path d="M1554 2893 c75 -113 234 -176 363 -144 45 12 49 11 66 -11 10 -13 68
-88 129 -168 106 -139 140 -182 123 -152 -4 8 -63 88 -131 179 -68 91 -121
170 -118 175 4 6 17 8 29 6 14 -3 22 0 20 6 -2 6 19 28 46 49 55 42 64 76 19
67 -14 -2 -41 -3 -60 -3 -106 4 -135 3 -138 -6 -2 -6 -9 -11 -15 -11 -6 0 -24
-12 -39 -27 -25 -24 -37 -27 -118 -31 l-89 -4 -57 58 c-51 52 -54 54 -30 17z"/>
<path d="M2873 2395 c9 -29 -50 -95 -90 -101 -24 -4 -42 3 -76 27 -120 84
-282 43 -349 -90 -16 -30 -28 -66 -28 -79 0 -14 -11 -35 -24 -47 -23 -22 -30
-23 -96 -28 l-35 -2 3 -50 c4 -66 61 -182 111 -228 111 -100 254 -138 387
-103 168 45 285 175 315 349 13 81 2 163 -34 240 -26 56 -94 146 -84 112z
m-251 -202 c37 -36 37 -75 -1 -114 -60 -60 -151 -23 -151 62 0 75 95 107 152
52z"/>
</g>
</svg>
